<svg width="24" height="24" viewBox="0 0 24 24" fill="none" xmlns="http://www.w3.org/2000/svg">
<path d="M19 2H5C3.34515 2.00483 2.00483 3.34515 2 5V13.86L5.88 9.98C7.06747 8.85 8.93253 8.85 10.12 9.98L12.9914 12.867L13.8789 11.9795C15.0524 10.8129 16.9476 10.8129 18.1211 11.9795L22 15.8584V5C21.9952 3.34515 20.6549 2.00483 19 2Z" fill="#BEBEBE"/>
<path d="M10.12 9.97982C8.93253 8.84982 7.06747 8.84982 5.88 9.97982L2 13.8598V18.9998C2.00484 20.6547 3.34516 21.995 5 21.9998H19C19.8151 21.9995 20.595 21.6673 21.16 21.0798L10.12 9.97982Z" fill="#666666"/>
<path d="M22 15.8584L18.1211 11.9794C16.9476 10.8128 15.0524 10.8128 13.8789 11.9794L12.9914 12.867L21.1556 21.0755C21.6978 20.5208 22.0009 19.7756 22 19V15.8584Z" fill="#E9E9E9"/>
</svg>
