<svg width="15" height="20" viewBox="0 0 15 20" fill="none" xmlns="http://www.w3.org/2000/svg">
<path d="M10.5 11.0005C10.2348 11.0005 9.98043 10.8951 9.79289 10.7076C9.60536 10.5201 9.5 10.2657 9.5 10.0005C9.5 9.73527 9.60536 9.48092 9.79289 9.29338C9.98043 9.10585 10.2348 9.00049 10.5 9.00049H14.5V3C14.4991 2.20462 14.1828 1.44206 13.6204 0.879639C13.0579 0.317218 12.2954 0.000868196 11.5 0H3.5C2.70462 0.000868196 1.94206 0.317218 1.37964 0.879639C0.817218 1.44206 0.500868 2.20462 0.5 3V17C0.500868 17.7954 0.817218 18.5579 1.37964 19.1204C1.94206 19.6828 2.70462 19.9991 3.5 20H11.5C12.2954 19.9991 13.0579 19.6828 13.6204 19.1204C14.1828 18.5579 14.4991 17.7954 14.5 17V11.0005H10.5Z" fill="#A2A1FF"/>
</svg>
