<svg width="19" height="19" viewBox="0 0 19 19" fill="none" xmlns="http://www.w3.org/2000/svg">
<path d="M17.3533 9.18341C15.7542 5.4705 12.7458 3.16675 9.49999 3.16675C6.25416 3.16675 3.24583 5.4705 1.64666 9.18341C1.60307 9.2833 1.58057 9.3911 1.58057 9.50008C1.58057 9.60906 1.60307 9.71687 1.64666 9.81675C3.24583 13.5297 6.25416 15.8334 9.49999 15.8334C12.7458 15.8334 15.7542 13.5297 17.3533 9.81675C17.3969 9.71687 17.4194 9.60906 17.4194 9.50008C17.4194 9.3911 17.3969 9.2833 17.3533 9.18341ZM9.49999 14.2501C6.99041 14.2501 4.61541 12.4372 3.24583 9.50008C4.61541 6.563 6.99041 4.75008 9.49999 4.75008C12.0096 4.75008 14.3846 6.563 15.7542 9.50008C14.3846 12.4372 12.0096 14.2501 9.49999 14.2501ZM9.49999 6.33341C8.87368 6.33341 8.26144 6.51914 7.74069 6.86709C7.21993 7.21505 6.81405 7.70962 6.57437 8.28825C6.3347 8.86688 6.27199 9.50359 6.39417 10.1179C6.51636 10.7321 6.81795 11.2964 7.26082 11.7393C7.70369 12.1821 8.26793 12.4837 8.88221 12.6059C9.49648 12.7281 10.1332 12.6654 10.7118 12.4257C11.2905 12.186 11.785 11.7801 12.133 11.2594C12.4809 10.7386 12.6667 10.1264 12.6667 9.50008C12.6667 8.66023 12.333 7.85477 11.7392 7.26091C11.1453 6.66704 10.3398 6.33341 9.49999 6.33341ZM9.49999 11.0834C9.18684 11.0834 8.88072 10.9906 8.62034 10.8166C8.35996 10.6426 8.15702 10.3953 8.03718 10.106C7.91734 9.81668 7.88599 9.49832 7.94708 9.19119C8.00818 8.88405 8.15897 8.60193 8.38041 8.3805C8.60184 8.15906 8.88396 8.00826 9.1911 7.94717C9.49824 7.88608 9.81659 7.91743 10.1059 8.03727C10.3952 8.15711 10.6425 8.36005 10.8165 8.62043C10.9905 8.88081 11.0833 9.18693 11.0833 9.50008C11.0833 9.92001 10.9165 10.3227 10.6196 10.6197C10.3226 10.9166 9.91992 11.0834 9.49999 11.0834Z" fill="#999999"/>
</svg>
