<svg width="19" height="19" viewBox="0 0 19 19" fill="none" xmlns="http://www.w3.org/2000/svg">
<path d="M13.5129 5.18233L15.6377 3.31479C15.7509 3.21583 15.891 3.16675 16.0312 3.16675C16.3621 3.16675 16.6249 3.43591 16.6249 3.7605C16.6249 3.92437 16.5568 4.08825 16.4238 4.20541L3.36134 15.6854C3.24892 15.7851 3.10879 15.8334 2.96867 15.8334C2.64013 15.8334 2.37492 15.569 2.37492 15.2397C2.37492 15.0758 2.443 14.9119 2.57521 14.7947L4.50529 13.0982C3.38588 12.202 2.42559 11.0779 1.69725 9.90937C1.62125 9.7835 1.58325 9.64179 1.58325 9.50008C1.58325 9.35837 1.62204 9.21666 1.69804 9.09079C3.36925 6.40704 6.26992 3.95841 9.49834 3.95841C10.9352 3.95841 12.2977 4.42787 13.5129 5.18233V5.18233ZM15.348 6.63108C16.1135 7.37762 16.7761 8.22471 17.3073 9.09871C17.3802 9.22221 17.4166 9.36154 17.4166 9.50008C17.4166 9.63862 17.3802 9.77796 17.3073 9.90146C15.6702 12.5955 12.7782 15.0417 9.49834 15.0417C8.47075 15.0417 7.47721 14.794 6.54542 14.3696L8.62275 12.5432C8.90142 12.624 9.19592 12.6667 9.49992 12.6667C11.2479 12.6667 12.6666 11.2481 12.6666 9.50008C12.6666 9.337 12.6539 9.17708 12.6302 9.02033L15.348 6.63108ZM11.4435 7.00079C10.9067 6.58279 10.2322 6.33341 9.49992 6.33341C7.75192 6.33341 6.33325 7.75208 6.33325 9.50008C6.33325 10.0867 6.49317 10.6361 6.77104 11.1072L7.68938 10.3005C7.58092 10.055 7.52075 9.78508 7.52075 9.50008C7.52075 8.40758 8.40742 7.52091 9.49992 7.52091C9.87517 7.52091 10.2267 7.62541 10.5259 7.8075L11.4435 7.00079Z" fill="#6563FF"/>
</svg>
