<svg width="24" height="24" viewBox="0 0 24 24" fill="none" xmlns="http://www.w3.org/2000/svg">
<path d="M18.8926 7.00022C17.2303 6.99229 15.8881 5.64011 15.8926 3.97776C15.905 2.32084 17.2582 0.987686 18.9152 1.00009C20.5458 1.01229 21.8682 2.32476 21.8926 3.9553V3.97776C21.8971 5.64011 20.5549 6.99229 18.8926 7.00022ZM11.7998 23.0002C5.6318 23.0002 0.799805 19.925 0.799805 16.0002C0.799805 12.0754 5.6318 9.00022 11.7998 9.00022C17.9678 9.00022 22.7998 12.0754 22.7998 16.0002C22.7998 19.925 17.9678 23.0002 11.7998 23.0002Z" fill="#BEBEBE"/>
<path d="M20.499 8.29195C18.8634 7.59688 17.0196 8.15102 16.0018 9.51442C18.9539 10.2709 21.2258 11.8093 22.23 13.749C22.3295 13.5877 22.4243 13.423 22.4988 13.2479C23.3151 11.3271 22.4197 9.10823 20.499 8.29195ZM11.7998 8.99977C12.1908 8.99977 12.5763 9.01265 12.9557 9.03682L13.8115 3.33174L15.8988 4.04158C15.8984 4.01967 15.8925 3.99928 15.8926 3.97731C15.8977 3.28377 16.1474 2.65504 16.5463 2.14992L13.3222 1.05348C13.265 1.03389 13.206 1.01954 13.1462 1.01057C12.6004 0.929209 12.0921 1.30561 12.0107 1.85133L10.9342 9.02675C11.2206 9.01314 11.5071 8.99977 11.7998 8.99977ZM7.59216 9.5157C7.50409 9.39851 7.41998 9.27815 7.31854 9.17165C5.87958 7.66121 3.48859 7.60322 1.97809 9.04219C0.663446 10.2946 0.451597 12.2673 1.36688 13.7538C2.36908 11.8131 4.64032 10.2733 7.59216 9.5157Z" fill="#E9E9E9"/>
<path d="M11.8418 19.5002C10.4687 19.6208 9.10514 19.1817 8.06052 18.2824C7.67004 17.8914 7.67047 17.2579 8.06149 16.8674C8.45251 16.4769 9.08604 16.4773 9.47653 16.8684C10.1578 17.3682 11.002 17.5937 11.8418 17.5002C12.6826 17.5935 13.5278 17.3677 14.21 16.8674C14.6001 16.476 15.2337 16.4751 15.625 16.8652C16.0164 17.2554 16.0173 17.8889 15.6272 18.2803C15.6261 18.2813 15.6251 18.2824 15.624 18.2834C14.5785 19.1816 13.2149 19.6202 11.8418 19.5002ZM9.99997 14.0023C10.0001 13.45 9.55257 13.0021 9.00028 13.002C8.44799 13.0018 8.00014 13.4494 7.99997 14.0016C7.9998 14.5539 8.44738 15.0018 8.99966 15.002C8.99987 15.002 9.00007 15.002 9.00028 15.002C9.55205 15.0011 9.99914 14.554 9.99997 14.0023ZM16 14.0023C16.0001 13.45 15.5526 13.0021 15.0003 13.002C14.448 13.0018 14.0001 13.4494 14 14.0016C13.9998 14.5539 14.4474 15.0018 14.9997 15.002C14.9999 15.002 15.0001 15.002 15.0003 15.002C15.5521 15.0011 15.9991 14.554 16 14.0023Z" fill="#666666"/>
</svg>
