<svg width="20" height="20" viewBox="0 0 20 20" fill="none" xmlns="http://www.w3.org/2000/svg">
<path d="M18.0917 16.9083L15 13.8416C16.2001 12.3453 16.7813 10.4461 16.624 8.5344C16.4668 6.62273 15.5831 4.84397 14.1546 3.56385C12.7262 2.28374 10.8615 1.59957 8.94411 1.65204C7.02671 1.70451 5.20228 2.48962 3.84596 3.84593C2.48965 5.20225 1.70454 7.02668 1.65207 8.94408C1.5996 10.8615 2.28377 12.7261 3.56388 14.1546C4.844 15.583 6.62276 16.4667 8.53443 16.624C10.4461 16.7812 12.3454 16.2001 13.8417 15L16.9083 18.0666C16.9858 18.1448 17.078 18.2068 17.1795 18.2491C17.2811 18.2914 17.39 18.3131 17.5 18.3131C17.61 18.3131 17.7189 18.2914 17.8205 18.2491C17.922 18.2068 18.0142 18.1448 18.0917 18.0666C18.2419 17.9113 18.3258 17.7036 18.3258 17.4875C18.3258 17.2714 18.2419 17.0637 18.0917 16.9083ZM9.16668 15C8.01295 15 6.88514 14.6579 5.92585 14.0169C4.96657 13.3759 4.21889 12.4649 3.77738 11.399C3.33587 10.3331 3.22035 9.16018 3.44543 8.02862C3.67051 6.89707 4.22608 5.85767 5.04189 5.04186C5.8577 4.22605 6.8971 3.67048 8.02865 3.4454C9.16021 3.22032 10.3331 3.33584 11.399 3.77735C12.4649 4.21886 13.3759 4.96654 14.0169 5.92582C14.6579 6.88511 15 8.01292 15 9.16665C15 10.7137 14.3854 12.1975 13.2915 13.2914C12.1975 14.3854 10.7138 15 9.16668 15Z" fill="#6563FF"/>
</svg>
