<svg width="17" height="17" viewBox="0 0 17 17" fill="none" xmlns="http://www.w3.org/2000/svg">
<path d="M3.54169 12.75H6.54502C6.63824 12.7506 6.73065 12.7327 6.81695 12.6975C6.90326 12.6622 6.98175 12.6103 7.04794 12.5446L11.9496 7.63587L13.9613 5.6667C14.0277 5.60086 14.0804 5.52251 14.1163 5.4362C14.1523 5.34988 14.1708 5.2573 14.1708 5.16379C14.1708 5.07028 14.1523 4.9777 14.1163 4.89138C14.0804 4.80506 14.0277 4.72672 13.9613 4.66087L10.9579 1.62212C10.8921 1.55573 10.8137 1.50303 10.7274 1.46707C10.6411 1.43111 10.5485 1.4126 10.455 1.4126C10.3615 1.4126 10.2689 1.43111 10.1826 1.46707C10.0963 1.50303 10.018 1.55573 9.9521 1.62212L7.9546 3.6267L3.03877 8.53545C2.97312 8.60164 2.92118 8.68014 2.88593 8.76644C2.85068 8.85274 2.83281 8.94515 2.83335 9.03837V12.0417C2.83335 12.2296 2.90798 12.4097 3.04082 12.5426C3.17366 12.6754 3.35383 12.75 3.54169 12.75ZM10.455 3.12379L12.4596 5.12837L11.4538 6.1342L9.44919 4.12962L10.455 3.12379ZM4.25002 9.32879L8.45044 5.12837L10.455 7.13295L6.2546 11.3334H4.25002V9.32879ZM14.875 14.1667H2.12502C1.93716 14.1667 1.75699 14.2413 1.62415 14.3742C1.49131 14.507 1.41669 14.6872 1.41669 14.875C1.41669 15.0629 1.49131 15.2431 1.62415 15.3759C1.75699 15.5087 1.93716 15.5834 2.12502 15.5834H14.875C15.0629 15.5834 15.243 15.5087 15.3759 15.3759C15.5087 15.2431 15.5834 15.0629 15.5834 14.875C15.5834 14.6872 15.5087 14.507 15.3759 14.3742C15.243 14.2413 15.0629 14.1667 14.875 14.1667Z" fill="white"/>
</svg>
